<?xml version="1.0" encoding="UTF-8"?>
<svg width="125pt" version="1.1" xmlns="http://www.w3.org/2000/svg" height="30pt" viewBox="0 0 125 30"
     xmlns:xlink="http://www.w3.org/1999/xlink">
    <defs>
        <clipPath id="Clip0">
            <path d="M0 0 L0 30 L125 30 L125 0 L0 0 Z" transform="translate(0, 0)"/>
        </clipPath>
    </defs>
    <g id="Hintergrund">
        <g id="Gruppe1" clip-path="url(#Clip0)">
            <path style="fill:#ffcc00; fill-rule:nonzero;stroke:none;" d="M60.001 10 L0 10 L0 0 L60.001 0 L60.001 10 Z"
                  transform="translate(54.999, 10)"/>
            <path style="fill:#000000; fill-rule:nonzero;stroke:none;"
                  d="M52.0004 2.6055 C52.0004 1.9599 51.8634 1.623 51.4704 1.623 C51.0754 1.623 50.9174 2.0019 50.9174 2.5947 C50.9174 3.1943 51.0804 3.5625 51.4644 3.5625 C51.8484 3.5625 52.0004 3.2158 52.0004 2.6055 Z M50.3714 5.0762 L50.3714 1.7226 C50.3714 1.5439 50.3604 1.3769 50.3504 1.2451 L50.8654 1.2451 C50.8704 1.2812 50.8864 1.5596 50.8864 1.6553 L50.8974 1.6553 C51.0074 1.4346 51.2064 1.208 51.6114 1.208 C52.2214 1.208 52.5464 1.75 52.5464 2.5898 C52.5464 3.4932 52.1854 3.9775 51.6164 3.9775 C51.2704 3.9775 51.0654 3.8096 50.9284 3.5625 L50.9174 3.5625 L50.9174 5.0762 L50.3714 5.0762 Z M49.7824 3.9404 C49.7724 3.7822 49.7624 3.6045 49.7624 3.4258 L49.7624 1.2451 L49.2154 1.2451 L49.2154 2.8262 C49.2154 3.2422 49.0574 3.5195 48.7114 3.5195 C48.4334 3.5195 48.2954 3.3418 48.2954 2.9219 L48.2954 1.2451 L47.7494 1.2451 L47.7494 3.0478 C47.7494 3.6142 47.9964 3.9775 48.5374 3.9775 C48.9054 3.9775 49.1054 3.7822 49.2364 3.5303 L49.2464 3.5303 C49.2464 3.6094 49.2684 3.8721 49.2684 3.9404 L49.7824 3.9404 Z M46.6614 2.5898 C46.6614 2.0273 46.5154 1.6182 46.0944 1.6182 C45.6734 1.6182 45.5254 2.0273 45.5254 2.5898 C45.5254 3.1523 45.6734 3.5674 46.0944 3.5674 C46.5154 3.5674 46.6614 3.1523 46.6614 2.5898 Z M44.9594 2.5898 C44.9594 1.6182 45.4634 1.208 46.0944 1.208 C46.7244 1.208 47.2294 1.6182 47.2294 2.5898 C47.2294 3.5771 46.7244 3.9775 46.0944 3.9775 C45.4634 3.9775 44.9594 3.5771 44.9594 2.5898 Z M43.9504 3.9404 L43.9504 2.4902 C43.9504 1.9433 44.2184 1.7178 44.5234 1.7178 C44.5864 1.7178 44.6444 1.7285 44.6964 1.7392 L44.6964 1.2139 C44.6964 1.2139 44.6654 1.208 44.6444 1.208 C44.2444 1.208 44.0284 1.4346 43.9184 1.7021 L43.9084 1.7021 C43.9084 1.6182 43.8874 1.3232 43.8874 1.2451 L43.3824 1.2451 C43.3934 1.4023 43.4034 1.581 43.4034 1.7598 L43.4034 3.9404 L43.9504 3.9404 Z M42.2119 3.4307 C42.1054 3.4834 41.9384 3.5146 41.7851 3.5146 C41.038 3.5146 40.667 2.9375 40.667 2.0547 C40.667 1.2236 41.1338 0.6933 41.791 0.6933 C42.0957 0.6933 42.3954 0.7822 42.6424 0.9189 L42.6574 0.3887 C42.4584 0.2939 42.1474 0.2256 41.7793 0.2256 C40.7129 0.2256 40.0673 0.9873 40.0673 2.1016 C40.0673 3.1416 40.6298 3.9834 41.7959 3.9834 C42.2002 3.9834 42.5474 3.8828 42.7464 3.793 L42.7464 1.9014 L41.622 1.9014 L41.622 2.3594 L42.2119 2.3594 L42.2119 3.4307 Z M38.7002 3.9404 L38.7002 3.4726 L37.497 3.4726 L37.497 0.2724 L36.9297 0.2724 L36.9297 3.9404 L38.7002 3.9404 Z M36.2519 3.9404 L36.2519 0.2724 L35.6836 0.2724 L35.6836 1.8017 L34.5009 1.8017 L34.5009 0.2724 L33.9345 0.2724 L33.9345 3.9404 L34.5009 3.9404 L34.5009 2.2803 L35.6836 2.2803 L35.6836 3.9404 L36.2519 3.9404 Z M31.5703 3.4834 C32.3535 3.4834 32.7324 2.9473 32.7324 2.0752 C32.7324 1.292 32.4004 0.7305 31.5703 0.7305 L31.3173 0.7305 L31.3173 3.4834 L31.5703 3.4834 Z M30.7509 3.9404 L30.7509 0.2724 L31.6289 0.2724 C32.0839 0.2724 32.3955 0.3721 32.6377 0.5303 C33.0351 0.7881 33.33 1.2764 33.33 2.0752 C33.33 3.2266 32.7099 3.9404 31.5127 3.9404 L30.7509 3.9404 Z M28.6797 3.4892 C28.6123 3.5195 28.5283 3.5517 28.417 3.5517 C28.2226 3.5517 28.1338 3.4512 28.1338 3.1572 L28.1338 1.665 L28.6797 1.665 L28.6797 1.2451 L28.1338 1.2451 L28.1338 0.5303 L27.5879 0.6933 L27.5879 1.2451 L27.1552 1.2451 L27.1552 1.665 L27.5879 1.665 L27.5879 3.2685 C27.5879 3.7881 27.8339 3.9775 28.2754 3.9775 C28.4336 3.9775 28.58 3.9404 28.6797 3.8984 L28.6797 3.4892 Z M25.2285 3.8349 C25.3964 3.9141 25.663 3.9775 25.9677 3.9775 C26.5722 3.9775 26.9043 3.6416 26.9043 3.1631 C26.9043 2.8369 26.7089 2.6641 26.3838 2.4795 L26.1474 2.3486 C25.9101 2.2178 25.7685 2.1269 25.7685 1.9482 C25.7685 1.7598 25.9004 1.6338 26.1738 1.6338 C26.3935 1.6338 26.5781 1.6855 26.7255 1.75 L26.7509 1.3086 C26.6416 1.2656 26.416 1.208 26.1308 1.208 C25.5839 1.208 25.2334 1.5762 25.2334 1.9805 C25.2334 2.3642 25.4492 2.543 25.7793 2.706 L26.0634 2.8476 C26.3047 2.9687 26.3789 3.0889 26.3789 3.2305 C26.3789 3.4414 26.1953 3.5517 25.9101 3.5517 C25.6474 3.5517 25.4121 3.4414 25.2588 3.3633 L25.2285 3.8349 Z M24.2509 2.5898 C24.2509 2.0273 24.1035 1.6182 23.6836 1.6182 C23.2627 1.6182 23.1142 2.0273 23.1142 2.5898 C23.1142 3.1523 23.2627 3.5674 23.6836 3.5674 C24.1035 3.5674 24.2509 3.1523 24.2509 2.5898 Z M22.5468 2.5898 C22.5468 1.6182 23.0517 1.208 23.6836 1.208 C24.3134 1.208 24.8173 1.6182 24.8173 2.5898 C24.8173 3.5771 24.3134 3.9775 23.6836 3.9775 C23.0517 3.9775 22.5468 3.5771 22.5468 2.5898 Z M21.1338 2.0068 C21.622 2.0068 21.8173 1.7754 21.8173 1.3711 C21.8173 0.9189 21.5869 0.7187 21.1406 0.7187 L20.8828 0.7187 L20.8828 2.0068 L21.1338 2.0068 Z M20.3144 3.9404 L20.3144 0.2724 L21.2802 0.2724 C21.6543 0.2724 21.9121 0.3721 22.1054 0.5625 C22.2959 0.7461 22.3955 1.0137 22.3955 1.3506 C22.3955 2.0547 21.9912 2.4531 21.2226 2.4531 L20.8828 2.4531 L20.8828 3.9404 L20.3144 3.9404 Z M18.1757 2.375 C18.1757 1.8594 18.0127 1.5967 17.6875 1.5967 C17.3769 1.5967 17.1767 1.8808 17.1718 2.375 L18.1757 2.375 Z M18.5703 3.8144 C18.3964 3.8935 18.124 3.9775 17.792 3.9775 C17.0048 3.9775 16.6259 3.3984 16.6259 2.6113 C16.6259 1.7861 17.0254 1.208 17.7031 1.208 C18.2959 1.208 18.7119 1.6182 18.7119 2.5644 L18.7119 2.7471 L17.1718 2.7471 C17.1718 3.2891 17.3828 3.5732 17.8808 3.5732 C18.1923 3.5732 18.4072 3.457 18.5429 3.3574 L18.5703 3.8144 Z M16.1045 3.9404 L16.1045 2.1387 C16.1045 1.5713 15.8584 1.208 15.3173 1.208 C14.9599 1.208 14.7656 1.4072 14.6504 1.6016 L14.6386 1.6016 L14.6386 0 L14.0927 0 L14.0927 3.9404 L14.6386 3.9404 L14.6386 2.3428 C14.6386 1.9277 14.8134 1.665 15.1543 1.665 C15.4336 1.665 15.5586 1.8437 15.5586 2.2646 L15.5586 3.9404 L16.1045 3.9404 Z M13.6416 3.4053 C13.5205 3.4726 13.3252 3.542 13.1425 3.542 C12.6748 3.542 12.4052 3.1728 12.4052 2.6113 C12.4052 1.9599 12.6679 1.6445 13.1308 1.6445 C13.3252 1.6445 13.4834 1.7021 13.6142 1.7695 L13.6416 1.3135 C13.5088 1.2558 13.289 1.208 13.0947 1.208 C12.2636 1.208 11.8379 1.7861 11.8379 2.6055 C11.8379 3.3682 12.2216 3.9775 13.0673 3.9775 C13.2998 3.9775 13.5302 3.9248 13.6718 3.8672 L13.6416 3.4053 Z M9.789 3.8349 C9.958 3.9141 10.2255 3.9775 10.5302 3.9775 C11.1338 3.9775 11.4658 3.6416 11.4658 3.1631 C11.4658 2.8369 11.2714 2.6641 10.9463 2.4795 L10.7089 2.3486 C10.4716 2.2178 10.33 2.1269 10.33 1.9482 C10.33 1.7598 10.4619 1.6338 10.7363 1.6338 C10.955 1.6338 11.1406 1.6855 11.2871 1.75 L11.3134 1.3086 C11.2031 1.2656 10.9765 1.208 10.6923 1.208 C10.1464 1.208 9.7949 1.5762 9.7949 1.9805 C9.7949 2.3642 10.0097 2.543 10.3418 2.706 L10.625 2.8476 C10.8672 2.9687 10.9394 3.0889 10.9394 3.2305 C10.9394 3.4414 10.7558 3.5517 10.4716 3.5517 C10.2089 3.5517 9.9726 3.4414 9.8213 3.3633 L9.789 3.8349 Z M9.4052 3.4892 C9.3379 3.5195 9.2539 3.5517 9.1425 3.5517 C8.9492 3.5517 8.8593 3.4512 8.8593 3.1572 L8.8593 1.665 L9.4052 1.665 L9.4052 1.2451 L8.8593 1.2451 L8.8593 0.5303 L8.3134 0.6933 L8.3134 1.2451 L7.8808 1.2451 L7.8808 1.665 L8.3134 1.665 L8.3134 3.2685 C8.3134 3.7881 8.5595 3.9775 9.0009 3.9775 C9.1591 3.9775 9.3056 3.9404 9.4052 3.8984 L9.4052 3.4892 Z M7.5185 3.9404 C7.5088 3.7822 7.499 3.6045 7.499 3.4258 L7.499 1.2451 L6.9511 1.2451 L6.9511 2.8262 C6.9511 3.2422 6.7949 3.5195 6.4463 3.5195 C6.1679 3.5195 6.0322 3.3418 6.0322 2.9219 L6.0322 1.2451 L5.4853 1.2451 L5.4853 3.0478 C5.4853 3.6142 5.7334 3.9775 6.2744 3.9775 C6.6425 3.9775 6.8418 3.7822 6.9726 3.5303 L6.9834 3.5303 C6.9834 3.6094 7.0048 3.8721 7.0048 3.9404 L7.5185 3.9404 Z M4.4873 2.375 C4.4873 1.8594 4.3252 1.5967 3.999 1.5967 C3.6884 1.5967 3.4882 1.8808 3.4834 2.375 L4.4873 2.375 Z M4.8808 3.8144 C4.7089 3.8935 4.4345 3.9775 4.1045 3.9775 C3.3164 3.9775 2.9375 3.3984 2.9375 2.6113 C2.9375 1.7861 3.3369 1.208 4.0136 1.208 C4.6084 1.208 5.0224 1.6182 5.0224 2.5644 L5.0224 2.7471 L3.4834 2.7471 C3.4834 3.2891 3.6933 3.5732 4.1923 3.5732 C4.5039 3.5732 4.7177 3.457 4.8545 3.3574 L4.8808 3.8144 Z M0.8203 3.4834 C1.6035 3.4834 1.9804 2.9473 1.9804 2.0752 C1.9804 1.292 1.6504 0.7305 0.8203 0.7305 L0.5673 0.7305 L0.5673 3.4834 L0.8203 3.4834 Z M0 3.9404 L0 0.2724 L0.8769 0.2724 C1.3339 0.2724 1.6455 0.3721 1.8867 0.5303 C2.2851 0.7881 2.58 1.2764 2.58 2.0752 C2.58 3.2266 1.9589 3.9404 0.7617 3.9404 L0 3.9404 Z"
                  transform="translate(58.7266, 12.8047)"/>
            <path style="fill:#000000; fill-rule:nonzero;stroke:none;"
                  d="M0.0391 2.7177 C0.2188 2.83 0.4288 2.8965 0.7129 2.8965 C1.0899 2.8965 1.3995 2.7041 1.3995 2.2705 C1.3995 1.6718 0 1.5966 0 0.7959 C0 0.3056 0.4288 0 0.9659 0 C1.1153 0 1.3565 0.0215 1.5664 0.1006 L1.5186 0.3759 C1.3829 0.3007 1.169 0.2617 0.962 0.2617 C0.6475 0.2617 0.3018 0.3925 0.3018 0.7871 C0.3018 1.4004 1.7022 1.4043 1.7022 2.2968 C1.7022 2.914 1.1719 3.1591 0.6993 3.1591 C0.4024 3.1591 0.17 3.0976 0.0079 3.0283 L0.0391 2.7177 Z"
                  transform="translate(21.415, 10.6348)"/>
            <path style="fill:#000000; fill-rule:nonzero;stroke:none;"
                  d="M1.2207 0.8701 L0.7129 0.8701 L0.7129 2.3145 C0.7129 2.5156 0.7872 2.6826 1.0108 2.6826 C1.1163 2.6826 1.1866 2.6602 1.2637 2.6299 L1.2823 2.8574 C1.2168 2.8838 1.0801 2.9189 0.9454 2.9189 C0.4541 2.9189 0.4375 2.582 0.4375 2.1748 L0.4375 0.8701 L0 0.8701 L0 0.6348 L0.4375 0.6348 L0.4375 0.0967 L0.7129 0 L0.7129 0.6348 L1.2207 0.6348 L1.2207 0.8701 Z"
                  transform="translate(23.3398, 10.875)"/>
            <path style="fill:#000000; fill-rule:nonzero;stroke:none;"
                  d="M0.0175 0.5508 C0.0175 0.3067 0.0175 0.2149 0 0.0528 L0.2753 0.0528 L0.2753 0.4815 L0.2841 0.4815 C0.3847 0.2325 0.5722 0 0.8583 0 C0.9238 0 1.0029 0.0127 1.0498 0.0254 L1.0498 0.3155 C0.9931 0.2979 0.9199 0.2881 0.8496 0.2881 C0.4121 0.2881 0.2929 0.7784 0.2929 1.1817 L0.2929 2.2842 L0.0175 2.2842 L0.0175 0.5508 Z"
                  transform="translate(25.0938, 11.457)"/>
            <path style="fill:#000000; fill-rule:nonzero;stroke:none;"
                  d="M1.5283 1.0108 C1.5283 0.6211 1.3711 0.2364 0.9589 0.2364 C0.5517 0.2364 0.3017 0.6436 0.3017 1.0108 L1.5283 1.0108 Z M1.663 2.2149 C1.4716 2.293 1.2216 2.3369 1.0166 2.3369 C0.2763 2.3369 0 1.8379 0 1.169 C0 0.4864 0.3769 0 0.9423 0 C1.5713 0 1.83 0.5078 1.83 1.1075 L1.83 1.2471 L0.3017 1.2471 C0.3017 1.7198 0.5556 2.1006 1.038 2.1006 C1.2382 2.1006 1.5332 2.0166 1.663 1.9336 L1.663 2.2149 Z"
                  transform="translate(26.335, 11.457)"/>
            <path style="fill:#000000; fill-rule:nonzero;stroke:none;"
                  d="M1.5293 1.0108 C1.5293 0.6211 1.3711 0.2364 0.9589 0.2364 C0.5517 0.2364 0.3017 0.6436 0.3017 1.0108 L1.5293 1.0108 Z M1.664 2.2149 C1.4707 2.293 1.2216 2.3369 1.0166 2.3369 C0.2763 2.3369 0 1.8379 0 1.169 C0 0.4864 0.3779 0 0.9423 0 C1.5712 0 1.83 0.5078 1.83 1.1075 L1.83 1.2471 L0.3017 1.2471 C0.3017 1.7198 0.5576 2.1006 1.038 2.1006 C1.2392 2.1006 1.5332 2.0166 1.664 1.9336 L1.664 2.2149 Z"
                  transform="translate(28.5352, 11.457)"/>
            <path style="fill:#000000; fill-rule:nonzero;stroke:none;"
                  d="M1.2208 0.8701 L0.7129 0.8701 L0.7129 2.3145 C0.7129 2.5156 0.7872 2.6826 1.0108 2.6826 C1.1163 2.6826 1.1866 2.6602 1.2637 2.6299 L1.2823 2.8574 C1.2168 2.8838 1.0801 2.9189 0.9454 2.9189 C0.4541 2.9189 0.4375 2.582 0.4375 2.1748 L0.4375 0.8701 L0 0.8701 L0 0.6348 L0.4375 0.6348 L0.4375 0.0967 L0.7129 0 L0.7129 0.6348 L1.2208 0.6348 L1.2208 0.8701 Z"
                  transform="translate(30.623, 10.875)"/>
            <path style="fill:#000000; fill-rule:nonzero;stroke:none;"
                  d="M0.0391 2.7177 C0.2187 2.83 0.4297 2.8965 0.7139 2.8965 C1.0898 2.8965 1.4014 2.7041 1.4014 2.2705 C1.4014 1.6718 0 1.5966 0 0.7959 C0 0.3056 0.4297 0 0.9678 0 C1.1152 0 1.3564 0.0215 1.5674 0.1006 L1.5185 0.3759 C1.3838 0.3007 1.168 0.2617 0.9629 0.2617 C0.6475 0.2617 0.3017 0.3925 0.3017 0.7871 C0.3017 1.4004 1.7021 1.4043 1.7021 2.2968 C1.7021 2.914 1.1728 3.1591 0.7002 3.1591 C0.4014 3.1591 0.1709 3.0976 0.0098 3.0283 L0.0391 2.7177 Z"
                  transform="translate(32.2588, 10.6348)"/>
            <path style="fill:#000000; fill-rule:nonzero;stroke:none;"
                  d="M1.6192 0.3496 C1.4697 0.2842 1.291 0.2364 1.1416 0.2364 C0.6035 0.2364 0.3028 0.625 0.3028 1.169 C0.3028 1.6758 0.6084 2.1006 1.1113 2.1006 C1.2871 2.1006 1.4492 2.0616 1.6153 2 L1.6406 2.2578 C1.4531 2.3243 1.2783 2.3369 1.0684 2.3369 C0.3496 2.3369 0 1.7901 0 1.169 C0 0.4815 0.4434 0 1.1026 0 C1.3692 0 1.5625 0.0616 1.6406 0.0869 L1.6192 0.3496 Z"
                  transform="translate(34.3408, 11.457)"/>
            <path style="fill:#000000; fill-rule:nonzero;stroke:none;"
                  d="M1.041 2.1006 C1.5215 2.1006 1.7802 1.6846 1.7802 1.169 C1.7802 0.6524 1.5215 0.2364 1.041 0.2364 C0.5595 0.2364 0.3008 0.6524 0.3008 1.169 C0.3008 1.6846 0.5595 2.1006 1.041 2.1006 Z M1.041 0 C1.7627 0 2.083 0.5606 2.083 1.169 C2.083 1.7774 1.7627 2.3369 1.041 2.3369 C0.3174 2.3369 0 1.7774 0 1.169 C0 0.5606 0.3174 0 1.041 0 Z"
                  transform="translate(36.293, 11.457)"/>
            <path style="fill:#000000; fill-rule:nonzero;stroke:none;"
                  d="M1.042 2.1006 C1.5244 2.1006 1.7822 1.6846 1.7822 1.169 C1.7822 0.6524 1.5244 0.2364 1.042 0.2364 C0.5595 0.2364 0.3017 0.6524 0.3017 1.169 C0.3017 1.6846 0.5595 2.1006 1.042 2.1006 Z M1.042 0 C1.7636 0 2.0839 0.5606 2.0839 1.169 C2.0839 1.7774 1.7636 2.3369 1.042 2.3369 C0.3203 2.3369 0 1.7774 0 1.169 C0 0.5606 0.3203 0 1.042 0 Z"
                  transform="translate(38.6934, 11.457)"/>
            <path style="fill:#000000; fill-rule:nonzero;stroke:none;"
                  d="M1.2207 0.8701 L0.7128 0.8701 L0.7128 2.3145 C0.7128 2.5156 0.788 2.6826 1.0097 2.6826 C1.1162 2.6826 1.1865 2.6602 1.2656 2.6299 L1.2822 2.8574 C1.2168 2.8838 1.08 2.9189 0.9453 2.9189 C0.4541 2.9189 0.4375 2.582 0.4375 2.1748 L0.4375 0.8701 L0 0.8701 L0 0.6348 L0.4375 0.6348 L0.4375 0.0967 L0.7128 0 L0.7128 0.6348 L1.2207 0.6348 L1.2207 0.8701 Z"
                  transform="translate(41.0518, 10.875)"/>
            <path style="fill:#000000; fill-rule:nonzero;stroke:none;"
                  d="M1.5263 1.0108 C1.5263 0.6211 1.3681 0.2364 0.958 0.2364 C0.5507 0.2364 0.3007 0.6436 0.3007 1.0108 L1.5263 1.0108 Z M1.663 2.2149 C1.4697 2.293 1.2207 2.3369 1.0156 2.3369 C0.2753 2.3369 0 1.8379 0 1.169 C0 0.4864 0.375 0 0.9404 0 C1.5703 0 1.8291 0.5078 1.8291 1.1075 L1.8291 1.2471 L0.3007 1.2471 C0.3007 1.7198 0.5546 2.1006 1.0371 2.1006 C1.2382 2.1006 1.5302 2.0166 1.663 1.9336 L1.663 2.2149 Z"
                  transform="translate(42.6143, 11.457)"/>
            <path style="fill:#000000; fill-rule:nonzero;stroke:none;"
                  d="M0.0176 0.5508 C0.0176 0.3067 0.0176 0.2149 0 0.0528 L0.2763 0.0528 L0.2763 0.4815 L0.2842 0.4815 C0.3847 0.2325 0.5722 0 0.8584 0 C0.9228 0 1.0019 0.0127 1.0508 0.0254 L1.0508 0.3155 C0.9931 0.2979 0.9189 0.2881 0.8496 0.2881 C0.4121 0.2881 0.2929 0.7784 0.2929 1.1817 L0.2929 2.2842 L0.0176 2.2842 L0.0176 0.5508 Z"
                  transform="translate(44.9844, 11.457)"/>
            <path style="fill:#000000; fill-rule:nonzero;stroke:none;"
                  d="M0 0.9629 L0.2754 0.9629 L0.2754 3.1943 L0 3.1943 L0 0.9629 Z M0.2754 0.3672 L0 0.3672 L0 0 L0.2754 0 L0.2754 0.3672 Z"
                  transform="translate(47.7441, 10.5469)"/>
            <path style="fill:#000000; fill-rule:nonzero;stroke:none;"
                  d="M0.0264 1.961 C0.1924 2.044 0.3935 2.1006 0.6084 2.1006 C0.8711 2.1006 1.1016 1.9561 1.1016 1.7022 C1.1016 1.1729 0.0303 1.2559 0.0303 0.6075 C0.0303 0.166 0.3887 0 0.7558 0 C0.875 0 1.1103 0.0254 1.3086 0.1006 L1.2812 0.3409 C1.1377 0.2754 0.9394 0.2364 0.7861 0.2364 C0.5019 0.2364 0.3057 0.3243 0.3057 0.6075 C0.3057 1.0244 1.4053 0.9707 1.4053 1.7022 C1.4053 2.1748 0.9629 2.3369 0.626 2.3369 C0.4101 2.3369 0.1973 2.3106 0 2.2325 L0.0264 1.961 Z"
                  transform="translate(48.5547, 11.457)"/>
            <path style="fill:#000000; fill-rule:nonzero;stroke:none;"
                  d="M1.2207 0.8701 L0.7139 0.8701 L0.7139 2.3145 C0.7139 2.5156 0.7891 2.6826 1.0108 2.6826 C1.1162 2.6826 1.1865 2.6602 1.2656 2.6299 L1.2822 2.8574 C1.2178 2.8838 1.082 2.9189 0.9453 2.9189 C0.4561 2.9189 0.4375 2.582 0.4375 2.1748 L0.4375 0.8701 L0 0.8701 L0 0.6348 L0.4375 0.6348 L0.4375 0.0967 L0.7139 0 L0.7139 0.6348 L1.2207 0.6348 L1.2207 0.8701 Z"
                  transform="translate(50.2285, 10.875)"/>
            <path style="fill:#000000; fill-rule:nonzero;stroke:none;"
                  d="M1.52738 1.0117 C1.52738 0.621 1.37008 0.2363 0.95798 0.2363 C0.55178 0.2363 0.30178 0.6435 0.30178 1.0117 L1.52738 1.0117 Z M1.66308 2.2148 C1.46978 2.2929 1.22068 2.3378 1.01558 2.3378 C0.27538 2.3378 0 1.8378 0 1.1679 C0 0.4863 0.37698 0 0.94048 0 C1.57028 0 1.82908 0.5078 1.82908 1.1074 L1.82908 1.247 L0.30178 1.247 C0.30178 1.7207 0.55568 2.1005 1.03708 2.1005 C1.23828 2.1005 1.53228 2.0175 1.66308 1.9345 L1.66308 2.2148 Z"
                  transform="translate(10.999, 16.7061)"/>
            <path style="fill:#000000; fill-rule:nonzero;stroke:none;"
                  d="M0 0.9629 L0.2754 0.9629 L0.2754 3.1943 L0 3.1943 L0 0.9629 Z M0.2754 0.3682 L0 0.3682 L0 0 L0.2754 0 L0.2754 0.3682 Z"
                  transform="translate(13.3877, 15.7959)"/>
            <path style="fill:#000000; fill-rule:nonzero;stroke:none;"
                  d="M0.0176 0.5781 C0.0176 0.4072 0.0176 0.2324 0 0.0527 L0.2676 0.0527 L0.2676 0.4511 L0.2763 0.4511 C0.3681 0.25 0.5342 0 0.998 0 C1.5498 0 1.7597 0.3671 1.7597 0.8584 L1.7597 2.2841 L1.4834 2.2841 L1.4834 0.9277 C1.4834 0.5078 1.3349 0.2363 0.9541 0.2363 C0.4511 0.2363 0.2929 0.6787 0.2929 1.0498 L0.2929 2.2841 L0.0176 2.2841 L0.0176 0.5781 Z"
                  transform="translate(14.376, 16.7061)"/>
            <path style="fill:#000000; fill-rule:nonzero;stroke:none;"
                  d="M2.2149 1.9874 C2.2149 2.8887 1.5537 3.1084 1.1074 3.1084 C0.6612 3.1084 0 2.8887 0 1.9874 L0 0 L0.3028 0 L0.3028 1.9874 C0.3028 2.4864 0.5781 2.8458 1.1074 2.8458 C1.6367 2.8458 1.9121 2.4864 1.9121 1.9874 L1.9121 0 L2.2149 0 L2.2149 1.9874 Z"
                  transform="translate(18.1201, 15.9355)"/>
            <path style="fill:#000000; fill-rule:nonzero;stroke:none;"
                  d="M0.0186 0.5781 C0.0186 0.4072 0.0186 0.2324 0 0.0527 L0.2676 0.0527 L0.2676 0.4511 L0.2764 0.4511 C0.3682 0.25 0.5352 0 0.9981 0 C1.5498 0 1.7598 0.3671 1.7598 0.8584 L1.7598 2.2841 L1.4844 2.2841 L1.4844 0.9277 C1.4844 0.5078 1.335 0.2363 0.9541 0.2363 C0.4512 0.2363 0.294 0.6787 0.294 1.0498 L0.294 2.2841 L0.0186 2.2841 L0.0186 0.5781 Z"
                  transform="translate(21.0244, 16.7061)"/>
            <path style="fill:#000000; fill-rule:nonzero;stroke:none;"
                  d="M1.2207 0.8711 L0.7129 0.8711 L0.7129 2.3155 C0.7129 2.5166 0.7871 2.6826 1.0108 2.6826 C1.1153 2.6826 1.1865 2.6612 1.2647 2.6309 L1.2823 2.8574 C1.2158 2.8848 1.0811 2.9199 0.9444 2.9199 C0.4541 2.9199 0.4375 2.5821 0.4375 2.1748 L0.4375 0.8711 L0 0.8711 L0 0.6348 L0.4375 0.6348 L0.4375 0.0967 L0.7129 0 L0.7129 0.6348 L1.2207 0.6348 L1.2207 0.8711 Z"
                  transform="translate(23.1865, 16.124)"/>
            <path style="fill:#000000; fill-rule:nonzero;stroke:none;"
                  d="M1.5274 1.0117 C1.5274 0.621 1.3701 0.2363 0.958 0.2363 C0.5518 0.2363 0.3028 0.6435 0.3028 1.0117 L1.5274 1.0117 Z M1.6621 2.2148 C1.4698 2.2929 1.2207 2.3378 1.0157 2.3378 C0.2754 2.3378 0 1.8378 0 1.1679 C0 0.4863 0.377 0 0.9405 0 C1.5703 0 1.8291 0.5078 1.8291 1.1074 L1.8291 1.247 L0.3028 1.247 C0.3028 1.7207 0.5547 2.1005 1.0371 2.1005 C1.2393 2.1005 1.5323 2.0175 1.6621 1.9345 L1.6621 2.2148 Z"
                  transform="translate(24.7695, 16.7061)"/>
            <path style="fill:#000000; fill-rule:nonzero;stroke:none;"
                  d="M0.0186 0.5517 C0.0186 0.3066 0.0186 0.2148 0 0.0527 L0.2754 0.0527 L0.2754 0.4814 L0.2852 0.4814 C0.3858 0.2324 0.5742 0 0.8574 0 C0.9239 0 1.003 0.0127 1.0498 0.0263 L1.0498 0.3154 C0.9942 0.2978 0.9199 0.289 0.8487 0.289 C0.4112 0.289 0.294 0.7793 0.294 1.1816 L0.294 2.2841 L0.0186 2.2841 L0.0186 0.5517 Z"
                  transform="translate(27.1406, 16.7061)"/>
            <path style="fill:#000000; fill-rule:nonzero;stroke:none;"
                  d="M0.0166 0.5781 C0.0166 0.4072 0.0166 0.2324 0 0.0527 L0.2666 0.0527 L0.2666 0.4511 L0.2754 0.4511 C0.3672 0.25 0.5332 0 0.9981 0 C1.5498 0 1.7588 0.3671 1.7588 0.8584 L1.7588 2.2841 L1.4834 2.2841 L1.4834 0.9277 C1.4834 0.5078 1.334 0.2363 0.9541 0.2363 C0.4502 0.2363 0.292 0.6787 0.292 1.0498 L0.292 2.2841 L0.0166 2.2841 L0.0166 0.5781 Z"
                  transform="translate(28.7109, 16.7061)"/>
            <path style="fill:#000000; fill-rule:nonzero;stroke:none;"
                  d="M1.5284 1.0117 C1.5284 0.621 1.3702 0.2363 0.959 0.2363 C0.5528 0.2363 0.3028 0.6435 0.3028 1.0117 L1.5284 1.0117 Z M1.6631 2.2148 C1.4707 2.2929 1.2207 2.3378 1.0157 2.3378 C0.2754 2.3378 0 1.8378 0 1.1679 C0 0.4863 0.377 0 0.9414 0 C1.5713 0 1.8291 0.5078 1.8291 1.1074 L1.8291 1.247 L0.3028 1.247 C0.3028 1.7207 0.5567 2.1005 1.0371 2.1005 C1.2383 2.1005 1.5332 2.0175 1.6631 1.9345 L1.6631 2.2148 Z"
                  transform="translate(31.0068, 16.7061)"/>
            <path style="fill:#000000; fill-rule:nonzero;stroke:none;"
                  d="M0 0 L0.2764 0 L0.2764 1.4267 L0.2842 1.4267 C0.4014 1.1806 0.6514 0.9971 0.9805 0.9971 C1.5791 0.9971 1.7402 1.3955 1.7402 1.9473 L1.7402 3.2812 L1.4648 3.2812 L1.4648 1.9512 C1.4648 1.5664 1.3916 1.2334 0.9355 1.2334 C0.4463 1.2334 0.2764 1.6973 0.2764 2.0869 L0.2764 3.2812 L0 3.2812 L0 0 Z"
                  transform="translate(33.3965, 15.709)"/>
            <path style="fill:#000000; fill-rule:nonzero;stroke:none;"
                  d="M2.7149 2.2841 L2.7149 0.8007 C2.7149 0.4863 2.5957 0.2363 2.2413 0.2363 C1.9385 0.2363 1.6416 0.4951 1.6416 1.0498 L1.6416 2.2841 L1.3663 2.2841 L1.3663 0.8007 C1.3663 0.4863 1.2481 0.2363 0.8926 0.2363 C0.5918 0.2363 0.295 0.4951 0.295 1.0498 L0.295 2.2841 L0.0176 2.2841 L0.0176 0.5781 C0.0176 0.4072 0.0176 0.2324 0 0.0527 L0.2676 0.0527 L0.2676 0.4296 L0.2754 0.4335 C0.3633 0.2802 0.4952 0 0.9717 0 C1.17 0 1.4922 0.0839 1.5625 0.4726 L1.5713 0.4726 C1.6719 0.2099 1.9356 0 2.2862 0 C2.7364 0 2.9903 0.3154 2.9903 0.749 L2.9903 2.2841 L2.7149 2.2841 Z"
                  transform="translate(35.8232, 16.7061)"/>
            <path style="fill:#000000; fill-rule:nonzero;stroke:none;"
                  d="M1.5274 1.0117 C1.5274 0.621 1.3701 0.2363 0.958 0.2363 C0.5518 0.2363 0.3028 0.6435 0.3028 1.0117 L1.5274 1.0117 Z M1.6621 2.2148 C1.4698 2.2929 1.2207 2.3378 1.0157 2.3378 C0.2754 2.3378 0 1.8378 0 1.1679 C0 0.4863 0.377 0 0.9405 0 C1.5703 0 1.8291 0.5078 1.8291 1.1074 L1.8291 1.247 L0.3028 1.247 C0.3028 1.7207 0.5547 2.1005 1.0371 2.1005 C1.2393 2.1005 1.5323 2.0175 1.6621 1.9345 L1.6621 2.2148 Z"
                  transform="translate(39.332, 16.7061)"/>
            <path style="fill:#000000; fill-rule:nonzero;stroke:none;"
                  d="M0.0186 0.5781 C0.0186 0.4072 0.0186 0.2324 0 0.0527 L0.2666 0.0527 L0.2666 0.4511 L0.2754 0.4511 C0.3682 0.25 0.5332 0 0.9981 0 C1.5489 0 1.7588 0.3671 1.7588 0.8584 L1.7588 2.2841 L1.4834 2.2841 L1.4834 0.9277 C1.4834 0.5078 1.335 0.2363 0.9541 0.2363 C0.4502 0.2363 0.294 0.6787 0.294 1.0498 L0.294 2.2841 L0.0186 2.2841 L0.0186 0.5781 Z"
                  transform="translate(41.7031, 16.7061)"/>
            <path style="fill:#000000; fill-rule:nonzero;stroke:none;"
                  d="M1.0821 2.2314 L0.7578 2.2314 L0 0 L0.3037 0 L0.92 1.9307 L0.9287 1.9307 L1.5772 0 L1.8653 0 L1.0821 2.2314 Z"
                  transform="translate(45.1318, 16.7588)"/>
            <path style="fill:#000000; fill-rule:nonzero;stroke:none;"
                  d="M1.042 2.1005 C1.5235 2.1005 1.7803 1.6845 1.7803 1.1679 C1.7803 0.6523 1.5235 0.2363 1.042 0.2363 C0.5596 0.2363 0.3028 0.6523 0.3028 1.1679 C0.3028 1.6845 0.5596 2.1005 1.042 2.1005 Z M1.042 0 C1.7627 0 2.0831 0.5605 2.0831 1.1679 C2.0831 1.7763 1.7627 2.3378 1.042 2.3378 C0.3194 2.3378 0 1.7763 0 1.1679 C0 0.5605 0.3194 0 1.042 0 Z"
                  transform="translate(47.2021, 16.7061)"/>
            <path style="fill:#000000; fill-rule:nonzero;stroke:none;"
                  d="M0.0186 0.5781 C0.0186 0.4072 0.0186 0.2324 0 0.0527 L0.2686 0.0527 L0.2686 0.4511 L0.2764 0.4511 C0.3692 0.25 0.5352 0 0.9981 0 C1.5498 0 1.7598 0.3671 1.7598 0.8584 L1.7598 2.2841 L1.4834 2.2841 L1.4834 0.9277 C1.4834 0.5078 1.335 0.2363 0.9541 0.2363 C0.4502 0.2363 0.294 0.6787 0.294 1.0498 L0.294 2.2841 L0.0186 2.2841 L0.0186 0.5781 Z"
                  transform="translate(49.7783, 16.7061)"/>
        </g>
    </g>
</svg>
