<?xml version="1.0" encoding="UTF-8" standalone="no"?>
<!-- Created with Inkscape (http://www.inkscape.org/) -->

<svg
        xmlns:dc="http://purl.org/dc/elements/1.1/"
        xmlns:cc="http://creativecommons.org/ns#"
        xmlns:rdf="http://www.w3.org/1999/02/22-rdf-syntax-ns#"
        xmlns:svg="http://www.w3.org/2000/svg"
        xmlns="http://www.w3.org/2000/svg"
        xmlns:xlink="http://www.w3.org/1999/xlink"
        xmlns:sodipodi="http://sodipodi.sourceforge.net/DTD/sodipodi-0.dtd"
        xmlns:inkscape="http://www.inkscape.org/namespaces/inkscape"
        width="110mm"
        height="60mm"
        viewBox="0 0 389.76378 212.59842"
        id="svg2"
        version="1.1"
        inkscape:version="0.91 r13725"
        sodipodi:docname="weblogo 2 changed color.svg">
    <defs
            id="defs4">
        <linearGradient
                id="linearGradient4186"
                spreadMethod="pad"
                gradientTransform="matrix(140.53857,0,0,-140.53857,96.254395,114.68652)"
                gradientUnits="userSpaceOnUse"
                y2="0"
                x2="1"
                y1="0"
                x1="0">
            <stop
                    id="stop4188"
                    offset="0"
                    style="stop-opacity:1;stop-color:#f4f4f4"/>
            <stop
                    id="stop4190"
                    offset="0.013074"
                    style="stop-opacity:1;stop-color:#f4f4f4"/>
            <stop
                    id="stop4192"
                    offset="0.039062"
                    style="stop-opacity:1;stop-color:#dbdbdb"/>
            <stop
                    id="stop4194"
                    offset="0.310368"
                    style="stop-opacity:1;stop-color:#4f4c4d"/>
            <stop
                    id="stop4196"
                    offset="0.735949"
                    style="stop-opacity:1;stop-color:#a7a5a6"/>
            <stop
                    id="stop4198"
                    offset="0.992307"
                    style="stop-opacity:1;stop-color:#393536"/>
            <stop
                    id="stop4200"
                    offset="1"
                    style="stop-opacity:1;stop-color:#393536"/>
        </linearGradient>
        <linearGradient
                id="linearGradient4216"
                spreadMethod="pad"
                gradientTransform="matrix(0.0092773,0,0,-0.0092773,60.912598,104.62695)"
                gradientUnits="userSpaceOnUse"
                y2="0"
                x2="1"
                y1="0"
                x1="0">
            <stop
                    id="stop4218"
                    offset="0"
                    style="stop-opacity:1;stop-color:#231f20"/>
            <stop
                    id="stop4220"
                    offset="0.45749101"
                    style="stop-opacity:1;stop-color:#ffffff"/>
            <stop
                    id="stop4222"
                    offset="0.741689"
                    style="stop-opacity:1;stop-color:#ffffff"/>
            <stop
                    id="stop4224"
                    offset="0.8473258"
                    style="stop-opacity:1;stop-color:#ffffff"/>
            <stop
                    id="stop4226"
                    offset="1"
                    style="stop-opacity:1;stop-color:#231f20"/>
        </linearGradient>
        <linearGradient
                id="linearGradient4268"
                spreadMethod="pad"
                gradientTransform="matrix(125.93336,-125.93336,-125.93336,-125.93336,114.10059,199.1709)"
                gradientUnits="userSpaceOnUse"
                y2="0"
                x2="1"
                y1="0"
                x1="0">
            <stop
                    id="stop4270"
                    offset="0"
                    style="stop-opacity:1;stop-color:#393536"/>
            <stop
                    id="stop4272"
                    offset="0.0241948"
                    style="stop-opacity:1;stop-color:#393536"/>
            <stop
                    id="stop4274"
                    offset="0.03265058"
                    style="stop-opacity:1;stop-color:#393536"/>
            <stop
                    id="stop4276"
                    offset="0.0857581"
                    style="stop-opacity:1;stop-color:#4f4c4d"/>
            <stop
                    id="stop4278"
                    offset="0.1442913"
                    style="stop-opacity:1;stop-color:#4f4c4d"/>
            <stop
                    id="stop4280"
                    offset="0.300701"
                    style="stop-opacity:1;stop-color:#e9e9e9"/>
            <stop
                    id="stop4282"
                    offset="0.35177868"
                    style="stop-opacity:1;stop-color:#e9e9e9"/>
            <stop
                    id="stop4284"
                    offset="0.435806"
                    style="stop-opacity:1;stop-color:#fbfbfb"/>
            <stop
                    id="stop4286"
                    offset="0.47154356"
                    style="stop-opacity:1;stop-color:#fbfbfb"/>
            <stop
                    id="stop4288"
                    offset="0.66496"
                    style="stop-opacity:1;stop-color:#7b7979"/>
            <stop
                    id="stop4290"
                    offset="1"
                    style="stop-opacity:1;stop-color:#231f20"/>
        </linearGradient>
        <linearGradient
                id="linearGradient4306"
                spreadMethod="pad"
                gradientTransform="matrix(140.53809,0,0,-140.53809,57.792969,97.59082)"
                gradientUnits="userSpaceOnUse"
                y2="0"
                x2="1"
                y1="0"
                x1="0">
            <stop
                    id="stop4308"
                    offset="0"
                    style="stop-opacity:1;stop-color:#e9e9e9"/>
            <stop
                    id="stop4310"
                    offset="0.0891662"
                    style="stop-opacity:1;stop-color:#e9e9e9"/>
            <stop
                    id="stop4312"
                    offset="0.312082"
                    style="stop-opacity:1;stop-color:#e9e9e9"/>
            <stop
                    id="stop4314"
                    offset="0.706693"
                    style="stop-opacity:1;stop-color:#ffffff"/>
            <stop
                    id="stop4316"
                    offset="0.85858248"
                    style="stop-opacity:1;stop-color:#ffffff"/>
            <stop
                    id="stop4318"
                    offset="1"
                    style="stop-opacity:1;stop-color:#a7a5a6"/>
        </linearGradient>
        <linearGradient
                id="linearGradient4334"
                spreadMethod="pad"
                gradientTransform="matrix(91.853447,-91.853447,-91.853447,-91.853447,123.09375,167.00391)"
                gradientUnits="userSpaceOnUse"
                y2="0"
                x2="1"
                y1="0"
                x1="0">
            <stop
                    id="stop4336"
                    offset="0"
                    style="stop-opacity:1;stop-color:#7b7979"/>
            <stop
                    id="stop4338"
                    offset="0.14258087"
                    style="stop-opacity:1;stop-color:#d3d2d2"/>
            <stop
                    id="stop4340"
                    offset="0.187779"
                    style="stop-opacity:1;stop-color:#d3d2d2"/>
            <stop
                    id="stop4342"
                    offset="0.32602989"
                    style="stop-opacity:1;stop-color:#d3d2d2"/>
            <stop
                    id="stop4344"
                    offset="0.462372"
                    style="stop-opacity:1;stop-color:#231f20"/>
            <stop
                    id="stop4346"
                    offset="0.53928838"
                    style="stop-opacity:1;stop-color:#231f20"/>
            <stop
                    id="stop4348"
                    offset="0.701112"
                    style="stop-opacity:1;stop-color:#4f4c4d"/>
            <stop
                    id="stop4350"
                    offset="0.75224328"
                    style="stop-opacity:1;stop-color:#4f4c4d"/>
            <stop
                    id="stop4352"
                    offset="0.855289"
                    style="stop-opacity:1;stop-color:#a7a5a6"/>
            <stop
                    id="stop4354"
                    offset="0.89504569"
                    style="stop-opacity:1;stop-color:#a7a5a6"/>
            <stop
                    id="stop4356"
                    offset="1"
                    style="stop-opacity:1;stop-color:#f4f4f4"/>
        </linearGradient>
        <clipPath
                id="clipPath4364"
                clipPathUnits="userSpaceOnUse">
            <path
                    inkscape:connector-curvature="0"
                    id="path4366"
                    d="m 0,167.333 294.976,0 L 294.976,0 0,0 0,167.333 Z"/>
        </clipPath>
        <linearGradient
                id="linearGradient4384"
                spreadMethod="pad"
                gradientTransform="matrix(-125.93406,125.93406,125.93406,125.93406,177.97559,20.436523)"
                gradientUnits="userSpaceOnUse"
                y2="0"
                x2="1"
                y1="0"
                x1="0">
            <stop
                    id="stop4386"
                    offset="0"
                    style="stop-opacity:1;stop-color:#4f4c4d"/>
            <stop
                    id="stop4388"
                    offset="0.588628"
                    style="stop-opacity:1;stop-color:#231f20"/>
            <stop
                    id="stop4390"
                    offset="0.65961806"
                    style="stop-opacity:1;stop-color:#231f20"/>
            <stop
                    id="stop4392"
                    offset="1"
                    style="stop-opacity:1;stop-color:#d1d0d0"/>
        </linearGradient>
        <linearGradient
                id="linearGradient4408"
                spreadMethod="pad"
                gradientTransform="matrix(-92.630295,92.630295,92.630295,92.630295,174.07617,46.876953)"
                gradientUnits="userSpaceOnUse"
                y2="0"
                x2="1"
                y1="0"
                x1="0">
            <stop
                    id="stop4410"
                    offset="0"
                    style="stop-opacity:1;stop-color:#413e3f"/>
            <stop
                    id="stop4412"
                    offset="0.28524211"
                    style="stop-opacity:1;stop-color:#fbfbfb"/>
            <stop
                    id="stop4414"
                    offset="0.321987"
                    style="stop-opacity:1;stop-color:#fbfbfb"/>
            <stop
                    id="stop4416"
                    offset="0.42759847"
                    style="stop-opacity:1;stop-color:#fbfbfb"/>
            <stop
                    id="stop4418"
                    offset="0.442025"
                    style="stop-opacity:1;stop-color:#fbfbfb"/>
            <stop
                    id="stop4420"
                    offset="0.66078622"
                    style="stop-opacity:1;stop-color:#afadae"/>
            <stop
                    id="stop4422"
                    offset="0.690669"
                    style="stop-opacity:1;stop-color:#afadae"/>
            <stop
                    id="stop4424"
                    offset="0.6942929"
                    style="stop-opacity:1;stop-color:#afadae"/>
            <stop
                    id="stop4426"
                    offset="0.935886"
                    style="stop-opacity:1;stop-color:#7b7979"/>
            <stop
                    id="stop4428"
                    offset="1"
                    style="stop-opacity:1;stop-color:#4f4c4d"/>
        </linearGradient>
        <clipPath
                id="clipPath4436"
                clipPathUnits="userSpaceOnUse">
            <path
                    inkscape:connector-curvature="0"
                    id="path4438"
                    d="m 82.867,148.249 c -0.033,-0.023 -0.067,-0.047 -0.104,-0.072 l 0,0 c -16.286,-11.321 -24.97,-27.736 -24.97,-41.45 l 0,0 c 0,-16.879 9.875,-32.499 27.811,-43.986 l 0,0 C 102.486,51.927 124.78,45.975 148.373,45.975 l 0,0 c 17.351,0 33.576,3.214 47.885,9.216 l 0,0 0.077,0.032 c 0,0 3.32,1.244 1.397,5.448 l 0,0 c -1.92,4.203 -1.473,3.936 -7.234,12.809 l 0,0 c -7.384,11.385 -21.101,25.741 -21.883,26.533 l 0,0 c -0.784,0.794 -1.472,1.337 -2.531,1.337 l 0,0 c -1.689,0 -3.06,-1.371 -3.06,-3.06 l 0,0 c 0,-0.285 0.14,-1.108 0.212,-1.368 l 0,0 0.004,0.003 c 0.164,-0.618 0.96,-2.604 1.304,-3.352 l 0,0 c 0,0 13.572,-23.27 -22.613,-25.289 l 0,0 C 97.685,66.826 74.623,79.647 71.762,104.828 l 0,0 c -0.916,11.565 5.319,21.371 18.503,32.849 l 0,0 c 0,0 1.425,0.994 1.426,2.916 l 0,0 c 0,0.569 0.006,1.37 -0.858,2.944 l 0,0 -2.385,4.152 c -0.666,1.116 -1.694,1.518 -2.987,1.518 l 0,0 c -0.992,0 -1.896,-0.361 -2.594,-0.958"/>
        </clipPath>
        <linearGradient
                inkscape:collect="always"
                xlink:href="#linearGradient4216"
                id="linearGradient4578"
                gradientUnits="userSpaceOnUse"
                gradientTransform="matrix(0.0092773,0,0,-0.0092773,60.912598,104.62695)"
                spreadMethod="pad"
                x1="0"
                y1="0"
                x2="1"
                y2="0"/>
        <linearGradient
                inkscape:collect="always"
                xlink:href="#linearGradient4216"
                id="linearGradient4580"
                gradientUnits="userSpaceOnUse"
                gradientTransform="matrix(0.0092773,0,0,-0.0092773,60.912598,104.62695)"
                spreadMethod="pad"
                x1="0"
                y1="0"
                x2="1"
                y2="0"/>
    </defs>
    <sodipodi:namedview
            id="base"
            pagecolor="#ffffff"
            bordercolor="#666666"
            borderopacity="1.0"
            inkscape:pageopacity="0.0"
            inkscape:pageshadow="2"
            inkscape:zoom="0.98994949"
            inkscape:cx="447.81942"
            inkscape:cy="265.53382"
            inkscape:document-units="px"
            inkscape:current-layer="layer1"
            showgrid="false"
            inkscape:window-width="1920"
            inkscape:window-height="1018"
            inkscape:window-x="-8"
            inkscape:window-y="-8"
            inkscape:window-maximized="1"/>
    <metadata
            id="metadata7">
        <rdf:RDF>
            <cc:Work
                    rdf:about="">
                <dc:format>image/svg+xml</dc:format>
                <dc:type
                        rdf:resource="http://purl.org/dc/dcmitype/StillImage"/>
                <dc:title></dc:title>
            </cc:Work>
        </rdf:RDF>
    </metadata>
    <g
            inkscape:label="Layer 1"
            inkscape:groupmode="layer"
            id="layer1"
            transform="translate(0,-839.76378)">
        <g
                id="g4154"
                transform="matrix(1.25,0,0,-1.25,83.962912,1038.111)">
            <path
                    d="m 0,0 c 3.531,1.439 5.642,3.655 6.332,6.646 0.441,1.91 0.055,3.422 -1.159,4.538 -1.215,1.115 -3.491,1.672 -6.828,1.672 l -9.198,0 -5.219,-22.607 5.26,0 1.979,8.565 3.346,0 5.069,-8.565 6.503,0 L 0,0 Z m -3.687,9.302 c 2.062,0 3.38,-0.277 3.954,-0.826 C 0.842,7.926 1.011,7.141 0.775,6.121 0.51,4.971 -0.071,4.041 -0.968,3.331 -1.866,2.62 -3.446,2.266 -5.71,2.266 l -2.359,0 1.625,7.036 2.757,0 z m 29.688,-15.303 -11.51,0 1.51,6.541 10.698,0 0.862,3.735 -10.697,0 1.115,4.83 11.51,0 0.866,3.751 -16.738,0 -5.22,-22.607 16.739,0 0.865,3.75 z m 20.928,0 -11.51,0 1.511,6.541 10.695,0 0.863,3.735 -10.696,0 1.115,4.83 11.51,0 0.865,3.751 -16.737,0 -5.219,-22.607 16.737,0 0.866,3.75 z m -60.82,18.857 -21.042,0 -0.866,-3.751 7.891,0 -4.353,-18.856 5.26,0 4.353,18.856 7.891,0 0.866,3.751 z m 89.377,0 -21.042,0 -0.866,-3.751 7.891,0 -4.353,-18.856 5.26,0 4.353,18.856 7.891,0 0.866,3.751 z m 38.692,-19.07 c 0,0 -6.009,0 -7.097,0.032 -2.024,0.06 -3.509,0.519 -4.407,1.873 -0.899,1.356 -1.058,3.284 -0.482,5.783 0.581,2.518 1.627,4.466 3.135,5.839 1.507,1.375 3.321,1.912 5.367,1.912 2.136,0 7.255,-0.032 7.255,-0.032 l 0.927,3.6 -8.023,0 c -3.48,0 -6.458,-1.042 -8.975,-3.065 -2.52,-2.027 -4.178,-4.773 -4.979,-8.241 -0.815,-3.534 -0.44,-6.288 1.132,-8.26 1.568,-1.971 4.114,-2.958 7.635,-2.958 1.057,0 5.254,-0.03 7.584,-0.03 l 0.928,3.547 z m 21.785,-0.515 c 2.452,2.012 4.079,4.754 4.88,8.225 0.808,3.501 0.447,6.254 -1.087,8.264 -1.534,2.007 -4.052,3.011 -7.557,3.011 -3.517,0 -6.498,-1.002 -8.948,-3.005 -2.45,-2.002 -4.08,-4.758 -4.887,-8.27 -0.807,-3.488 -0.443,-6.235 1.092,-8.238 1.533,-2.005 4.048,-3.006 7.544,-3.006 3.525,0 6.513,1.006 8.963,3.019 m -0.675,14.035 c 0.755,-1.368 0.845,-3.298 0.27,-5.794 -0.576,-2.488 -1.559,-4.415 -2.952,-5.788 -1.394,-1.372 -2.995,-2.058 -4.804,-2.058 -1.818,0 -3.108,0.681 -3.873,2.043 -0.762,1.362 -0.854,3.293 -0.277,5.787 0.579,2.507 1.562,4.442 2.956,5.81 1.392,1.368 2.999,2.052 4.818,2.052 1.819,0 3.105,-0.684 3.862,-2.052 m 25.687,-14.035 c 2.451,2.012 4.078,4.754 4.879,8.225 0.807,3.501 0.444,6.254 -1.086,8.264 -1.535,2.007 -4.055,3.011 -7.56,3.011 -3.516,0 -6.498,-1.002 -8.946,-3.005 -2.449,-2.002 -4.079,-4.758 -4.889,-8.27 -0.804,-3.488 -0.443,-6.235 1.092,-8.238 1.535,-2.005 4.049,-3.006 7.544,-3.006 3.527,0 6.514,1.006 8.966,3.019 m -0.676,14.035 c 0.756,-1.368 0.845,-3.298 0.269,-5.794 -0.573,-2.488 -1.558,-4.415 -2.95,-5.788 -1.395,-1.372 -2.995,-2.058 -4.805,-2.058 -1.818,0 -3.109,0.681 -3.871,2.043 -0.763,1.362 -0.857,3.293 -0.28,5.787 0.578,2.507 1.564,4.442 2.956,5.81 1.392,1.368 2.999,2.052 4.817,2.052 1.819,0 3.107,-0.684 3.864,-2.052 m 31.89,5.55 -21.043,0 -0.865,-3.751 7.89,0 -4.353,-18.856 5.26,0 4.353,18.856 7.891,0 0.867,3.751 z m 15.508,-18.857 -11.51,0 1.512,6.541 10.695,0 0.863,3.735 -10.697,0 1.115,4.83 11.51,0 0.865,3.751 -16.738,0 -5.219,-22.607 16.739,0 0.865,3.75 z"
                    style="fill:#393536;fill-opacity:1;fill-rule:nonzero;stroke:none"
                    id="path4156"
                    inkscape:connector-curvature="0"/>
        </g>
        <g
                id="g4158"
                transform="matrix(1.25,0,0,-1.25,186.66615,1050.318)">
            <path
                    d="m 0,0 c 3.042,0.175 4.815,0.468 7.005,1.769 2.189,1.301 3.529,3.021 4.023,5.158 0.168,0.727 0.215,1.393 0.139,1.996 -0.078,0.601 -0.279,1.148 -0.602,1.639 -0.324,0.49 -0.802,0.945 -1.437,1.362 -0.635,0.418 -1.658,0.794 -3.068,1.13 -1.413,0.335 -2.7,0.603 -3.863,0.807 -1.149,0.263 -1.926,0.599 -2.332,1.005 -0.406,0.408 -0.529,0.957 -0.369,1.648 0.186,0.805 0.658,1.283 1.645,1.749 0.986,0.466 2.241,0.68 3.598,0.68 l 7.768,0 0.941,3.631 -8.056,0 c -2.892,0 -5.404,-0.624 -7.534,-1.872 -2.129,-1.248 -3.423,-2.867 -3.883,-4.858 -0.386,-1.671 -0.163,-3.043 0.668,-4.116 0.83,-1.075 2.225,-1.825 4.183,-2.251 C 0.784,9.049 2.173,8.763 2.991,8.616 4.12,8.354 4.851,8.023 5.185,7.626 5.519,7.228 5.608,6.693 5.454,6.023 5.255,5.158 4.589,4.679 3.583,4.192 2.529,3.836 1.412,3.642 -0.049,3.642 c -1.41,0 -2.743,-0.033 -4.33,0 -0.332,0.006 -3.107,0 -3.107,0 L -8.458,0 -1.553,0 0,0 Z"
                    style="fill:#393536;fill-opacity:1;fill-rule:nonzero;stroke:none"
                    id="path4160"
                    inkscape:connector-curvature="0"/>
        </g>
        <g
                id="g4162"
                transform="matrix(1.25,0,0,-1.25,20.311152,1050.318)">
            <path
                    d="m 0,0 c 3.042,0.175 4.816,0.468 7.006,1.769 2.189,1.301 3.529,3.021 4.023,5.158 0.168,0.727 0.214,1.393 0.138,1.996 -0.077,0.601 -0.278,1.148 -0.601,1.639 -0.324,0.49 -0.802,0.945 -1.437,1.362 -0.635,0.418 -1.658,0.794 -3.069,1.13 -1.412,0.335 -2.7,0.603 -3.863,0.807 -1.149,0.263 -1.926,0.599 -2.332,1.005 -0.406,0.408 -0.529,0.957 -0.369,1.648 0.186,0.805 0.659,1.283 1.644,1.749 0.987,0.466 2.243,0.68 3.6,0.68 l 7.768,0 0.941,3.631 -8.056,0 c -2.893,0 -5.405,-0.624 -7.535,-1.872 -2.129,-1.248 -3.423,-2.867 -3.883,-4.858 -0.386,-1.671 -0.163,-3.043 0.668,-4.116 0.83,-1.075 2.225,-1.825 4.183,-2.251 C 0.784,9.049 2.173,8.763 2.991,8.616 4.12,8.354 4.851,8.023 5.186,7.626 5.52,7.228 5.609,6.693 5.455,6.023 5.255,5.158 4.59,4.679 3.584,4.192 2.529,3.836 1.413,3.642 -0.049,3.642 c -1.41,0 -2.743,-0.033 -4.33,0 -0.332,0.006 -3.107,0 -3.107,0 L -8.458,0 -1.553,0 0,0 Z"
                    style="fill:#393536;fill-opacity:1;fill-rule:nonzero;stroke:none"
                    id="path4164"
                    inkscape:connector-curvature="0"/>
        </g>
        <g
                id="g4166"
                transform="matrix(1.25,0,0,-1.25,375.48815,1024.1315)">
            <path
                    d="m 0,0 c -1.215,1.115 -3.49,1.674 -6.828,1.674 l -3.408,0 -0.821,-3.557 2.198,0 c 2.06,0 3.379,-0.274 3.953,-0.825 0.574,-0.55 0.744,-1.335 0.51,-2.354 -0.266,-1.151 -0.848,-2.082 -1.747,-2.792 -0.896,-0.709 -2.476,-1.065 -4.74,-1.065 l -1.799,0 -0.797,-3.449 2.821,0 5.068,-8.567 6.504,0 -6.086,9.751 c 3.529,1.441 5.641,3.656 6.332,6.647 C 1.602,-2.628 1.215,-1.114 0,0"
                    style="fill:#393536;fill-opacity:1;fill-rule:nonzero;stroke:none"
                    id="path4168"
                    inkscape:connector-curvature="0"/>
        </g>
        <path
                inkscape:connector-curvature="0"
                id="path4172"
                style="fill:#026db1;fill-opacity:1;fill-rule:nonzero;stroke:none"
                d="m 360.40766,1022.0319 -6.455,0 -4.65125,20.15 6.455,0 4.65125,-20.15 z m -11.70125,22.7312 -1.2775,5.5275 6.455,0 1.2775,-5.5275 -6.455,0 z"/>
        <g
                id="g4174"
                transform="matrix(1.25,0,0,-1.25,9.0892824,1051.1322)">
            <g
                    id="g4176">
                <g
                        id="g4182">
                    <g
                            id="g4184">
                        <path
                                d="m 98.329,157.087 -0.076,-0.033 c 0,0 -3.322,-1.244 -1.399,-5.447 l 0,0 c 1.924,-4.204 1.475,-3.935 7.233,-12.811 l 0,0 c 7.387,-11.383 21.101,-25.742 21.885,-26.534 l 0,0 c 0.783,-0.793 1.473,-1.335 2.53,-1.335 l 0,0 c 1.689,0 3.061,1.37 3.061,3.061 l 0,0 c 0,0.284 -0.141,1.105 -0.213,1.367 l 0,0 -0.003,-0.003 c -0.165,0.617 -0.959,2.604 -1.303,3.352 l 0,0 c 0,0 -13.575,23.268 22.613,25.288 l 0,0 c 44.244,1.459 67.307,-11.361 70.169,-36.545 l 0,0 c 0.915,-11.565 -5.319,-21.372 -18.504,-32.849 l 0,0 c 0,0 -1.423,-0.991 -1.423,-2.912 l 0,0 c -0.002,-0.572 -0.009,-1.373 0.859,-2.947 l 0,0 2.38,-4.153 c 0.669,-1.114 1.695,-1.514 2.988,-1.514 l 0,0 c 0.989,0 1.889,0.355 2.586,0.952 l 0,0 c 0.035,0.025 0.073,0.051 0.112,0.079 l 0,0 c 16.285,11.317 24.969,27.733 24.969,41.445 l 0,0 c 0,16.881 -9.876,32.501 -27.814,43.986 l 0,0 c -16.879,10.814 -39.171,16.767 -62.768,16.767 l 0,0 c -17.351,0 -33.571,-3.212 -47.882,-9.214"
                                style="fill:url(#linearGradient4186);stroke:none"
                                id="path4202"
                                inkscape:connector-curvature="0"/>
                    </g>
                </g>
            </g>
        </g>
        <g
                id="g4204"
                transform="matrix(1.25,0,0,-1.25,9.0892824,1051.1322)">
            <g
                    id="g4206">
                <g
                        id="g4212">
                    <g
                            id="g4214">
                        <path
                                d="m 60.913,104.627 0.001,0 0.008,0 -0.009,0 z"
                                style="fill:url(#linearGradient4578);stroke:none"
                                id="path4228"
                                inkscape:connector-curvature="0"/>
                    </g>
                </g>
            </g>
        </g>
        <g
                id="g4230"
                transform="matrix(1.25,0,0,-1.25,9.0892824,1051.1322)">
            <g
                    id="g4232">
                <g
                        id="g4238">
                    <g
                            id="g4240">
                        <path
                                d="m 60.913,104.627 0.001,0 0.008,0 -0.009,0 z"
                                style="fill:url(#linearGradient4580);stroke:none"
                                id="path4254"
                                inkscape:connector-curvature="0"/>
                    </g>
                </g>
            </g>
        </g>
        <g
                id="g4256"
                transform="matrix(1.25,0,0,-1.25,9.0892824,1051.1322)">
            <g
                    id="g4258">
                <g
                        id="g4264">
                    <g
                            id="g4266">
                        <path
                                d="m 98.329,157.087 -0.076,-0.033 c 0,0 -3.322,-1.244 -1.399,-5.447 l 0,0 c 1.599,-3.495 1.559,-3.899 4.808,-9.035 l 0,0 c 12.887,5.368 54.463,20.608 84.664,8.018 l 0,0 2.714,-9.615 c 20.694,-5.133 31.851,-16.506 33.786,-33.528 l 0,0 C 223.675,96.72 218.372,87.505 207.078,77.068 l 0,0 2.043,-7.241 c -0.172,-1.782 -0.447,-4.549 -0.663,-6.715 l 0,0 c 0.213,-0.027 0.436,-0.04 0.668,-0.04 l 0,0 c 0.989,0 1.889,0.355 2.586,0.952 l 0,0 c 0.035,0.025 0.072,0.051 0.112,0.079 l 0,0 c 16.285,11.317 24.969,27.733 24.969,41.445 l 0,0 c 0,16.881 -9.876,32.501 -27.814,43.986 l 0,0 c -16.879,10.814 -39.171,16.767 -62.768,16.767 l 0,0 c -17.351,0 -33.571,-3.212 -47.882,-9.214"
                                style="fill:url(#linearGradient4268);stroke:none"
                                id="path4292"
                                inkscape:connector-curvature="0"/>
                    </g>
                </g>
            </g>
        </g>
        <g
                id="g4294"
                transform="matrix(1.25,0,0,-1.25,9.0892824,1051.1322)">
            <g
                    id="g4296">
                <g
                        id="g4302">
                    <g
                            id="g4304">
                        <path
                                d="m 82.867,148.249 c -0.033,-0.023 -0.067,-0.047 -0.104,-0.072 l 0,0 c -16.286,-11.321 -24.97,-27.736 -24.97,-41.45 l 0,0 c 0,-16.879 9.875,-32.499 27.811,-43.986 l 0,0 C 102.486,51.927 124.78,45.975 148.373,45.975 l 0,0 c 17.351,0 33.576,3.214 47.885,9.216 l 0,0 0.077,0.032 c 0,0 3.32,1.244 1.397,5.448 l 0,0 c -1.92,4.203 -1.473,3.936 -7.234,12.809 l 0,0 c -7.384,11.385 -21.101,25.741 -21.883,26.533 l 0,0 c -0.784,0.794 -1.472,1.337 -2.531,1.337 l 0,0 c -1.689,0 -3.06,-1.371 -3.06,-3.06 l 0,0 c 0,-0.285 0.14,-1.108 0.212,-1.368 l 0,0 0.004,0.003 c 0.164,-0.618 0.96,-2.604 1.304,-3.352 l 0,0 c 0,0 13.572,-23.27 -22.613,-25.289 l 0,0 C 97.685,66.826 74.623,79.647 71.762,104.828 l 0,0 c -0.916,11.565 5.319,21.371 18.503,32.849 l 0,0 c 0,0 1.425,0.994 1.426,2.916 l 0,0 c 0,0.569 0.006,1.37 -0.858,2.944 l 0,0 -2.385,4.152 c -0.666,1.116 -1.694,1.518 -2.987,1.518 l 0,0 c -0.992,0 -1.896,-0.361 -2.594,-0.958"
                                style="fill:url(#linearGradient4306);stroke:none"
                                id="path4320"
                                inkscape:connector-curvature="0"/>
                    </g>
                </g>
            </g>
        </g>
        <g
                id="g4322"
                transform="matrix(1.25,0,0,-1.25,9.0892824,1051.1322)">
            <g
                    id="g4324">
                <g
                        id="g4330">
                    <g
                            id="g4332">
                        <path
                                d="m 100.962,143.687 c 0.777,-1.248 1.782,-2.82 3.125,-4.891 l 0,0 c 7.387,-11.383 21.101,-25.742 21.885,-26.534 l 0,0 c 0.783,-0.793 1.473,-1.335 2.53,-1.335 l 0,0 c 1.689,0 3.061,1.37 3.061,3.061 l 0,0 c 0,0.284 -0.141,1.105 -0.213,1.367 l 0,0 -0.003,-0.003 c -0.165,0.617 -0.959,2.604 -1.303,3.352 l 0,0 c 0,0 -13.575,23.268 22.613,25.288 l 0,0 c 44.244,1.459 67.307,-11.361 70.169,-36.545 l 0,0 c 0.915,-11.565 -5.319,-21.372 -18.504,-32.849 l 0,0 c 0,0 -1.27,-0.884 -1.411,-2.601 l 0,0 c 1.616,-0.556 3.511,-1.226 6.181,-2.169 l 0,0 c 31.198,25.458 27.753,63.354 -17.995,80.58 l 0,0 c -13.495,5.082 -26.227,6.966 -37.701,6.965 l 0,0 c -25.799,-0.002 -45.209,-9.535 -52.434,-13.686"
                                style="fill:url(#linearGradient4334);stroke:none"
                                id="path4358"
                                inkscape:connector-curvature="0"/>
                    </g>
                </g>
            </g>
        </g>
        <g
                id="g4360"
                transform="matrix(1.25,0,0,-1.25,9.0892824,1051.1322)">
            <g
                    id="g4362"
                    clip-path="url(#clipPath4364)">
                <g
                        id="g4368"
                        transform="translate(152.6572,143.9922)">
                    <path
                            d="m 0,0 c 44.244,1.459 67.307,-11.361 70.168,-36.545 0.916,-11.564 -5.318,-21.372 -18.504,-32.849 0,0 -1.423,-0.992 -1.423,-2.913 -0.002,-0.571 -0.009,-1.373 0.86,-2.946 l 2.379,-4.153 c 0.669,-1.115 1.696,-1.514 2.989,-1.514 1.037,0 1.977,0.391 2.687,1.042 0,0 -1.518,-1.078 0.011,-0.012 16.285,11.318 24.969,27.734 24.969,41.447 0,16.88 -9.876,32.5 -27.814,43.985 -16.88,10.813 -39.171,16.767 -62.768,16.767 -17.351,0 -33.571,-3.212 -47.882,-9.214 l -0.076,-0.032 c 0,0 -3.323,-1.245 -1.4,-5.448 1.924,-4.204 1.476,-3.935 7.233,-12.811 7.387,-11.384 21.102,-25.742 21.886,-26.534 0.783,-0.793 1.472,-1.335 2.53,-1.335 1.689,0 3.06,1.37 3.06,3.061 0,0.284 -0.14,1.105 -0.212,1.367 l -0.003,-0.003 c -0.165,0.617 -0.959,2.603 -1.304,3.352 0,0 -13.574,23.268 22.614,25.288 z"
                            style="fill:none;stroke:#bdbcbc;stroke-width:0.45100001;stroke-linecap:butt;stroke-linejoin:miter;stroke-miterlimit:10;stroke-dasharray:none;stroke-opacity:1"
                            id="path4370"
                            inkscape:connector-curvature="0"/>
                </g>
            </g>
        </g>
        <g
                id="g4372"
                transform="matrix(1.25,0,0,-1.25,9.0892824,1051.1322)">
            <g
                    id="g4374">
                <g
                        id="g4380">
                    <g
                            id="g4382">
                        <path
                                d="m 82.868,148.25 c -0.034,-0.024 -0.068,-0.048 -0.105,-0.073 l 0,0 c -16.286,-11.321 -24.97,-27.736 -24.97,-41.45 l 0,0 c 0,-16.879 9.875,-32.499 27.811,-43.986 l 0,0 C 102.486,51.927 124.78,45.975 148.373,45.975 l 0,0 c 17.351,0 33.576,3.214 47.885,9.216 l 0,0 0.077,0.032 c 0,0 3.32,1.244 1.397,5.448 l 0,0 c -1.851,4.051 -1.502,3.95 -6.635,11.885 l 0,0 C 176.243,68.061 135.722,57.858 106.692,69.96 l 0,0 -0.324,1.143 C 85.149,76.138 73.721,87.586 71.762,104.828 l 0,0 c -0.863,10.893 4.618,20.225 16.274,30.864 l 0,0 -1.974,6.958 c -0.15,2.422 -0.28,4.614 -0.392,6.554 l 0,0 c -0.069,0.002 -0.138,0.003 -0.209,0.003 l 0,0 c -0.992,0 -1.896,-0.361 -2.593,-0.957"
                                style="fill:url(#linearGradient4384);stroke:none"
                                id="path4394"
                                inkscape:connector-curvature="0"/>
                    </g>
                </g>
            </g>
        </g>
        <g
                id="g4396"
                transform="matrix(1.25,0,0,-1.25,9.0892824,1051.1322)">
            <g
                    id="g4398">
                <g
                        id="g4404">
                    <g
                            id="g4406">
                        <path
                                d="m 100.527,64.714 c 44.276,-15.626 80.035,-2.21 92.993,4.045 l 0,0 c -0.763,1.22 -1.738,2.744 -3.022,4.721 l 0,0 c -7.384,11.385 -21.101,25.741 -21.883,26.533 l 0,0 c -0.784,0.794 -1.472,1.337 -2.531,1.337 l 0,0 c -1.689,0 -3.06,-1.371 -3.06,-3.06 l 0,0 c 0,-0.285 0.14,-1.108 0.212,-1.368 l 0,0 0.004,0.003 c 0.164,-0.618 0.96,-2.604 1.304,-3.352 l 0,0 c 0,0 13.572,-23.27 -22.613,-25.289 l 0,0 C 97.685,66.826 74.623,79.647 71.762,104.828 l 0,0 c -0.916,11.565 5.319,21.371 18.503,32.849 l 0,0 c 0,0 1.235,0.862 1.406,2.531 l 0,0 c -1.778,0.835 -3.685,1.664 -5.609,2.39 l 0,0 C 51.536,118.836 59.771,79.098 100.527,64.714"
                                style="fill:url(#linearGradient4408);stroke:none"
                                id="path4430"
                                inkscape:connector-curvature="0"/>
                    </g>
                </g>
            </g>
        </g>
        <g
                id="g4432"
                transform="matrix(1.25,0,0,-1.25,9.0892824,1051.1322)">
            <g
                    id="g4434"
                    clip-path="url(#clipPath4436)">
                <g
                        id="g4440"
                        transform="translate(152.6572,143.9922)">
                    <path
                            d="m 0,0 c 44.244,1.459 67.307,-11.361 70.168,-36.545 0.916,-11.564 -5.318,-21.372 -18.504,-32.849 0,0 -1.423,-0.992 -1.423,-2.913 -0.002,-0.571 -0.009,-1.373 0.86,-2.946 l 2.379,-4.153 c 0.669,-1.115 1.696,-1.514 2.989,-1.514 1.037,0 1.977,0.391 2.687,1.042 0,0 -1.518,-1.078 0.011,-0.012 16.285,11.318 24.969,27.734 24.969,41.447 0,16.88 -9.876,32.5 -27.814,43.985 -16.88,10.813 -39.171,16.767 -62.768,16.767 -17.351,0 -33.571,-3.212 -47.882,-9.214 l -0.076,-0.032 c 0,0 -3.323,-1.245 -1.4,-5.448 1.924,-4.204 1.476,-3.935 7.233,-12.811 7.387,-11.384 21.102,-25.742 21.886,-26.534 0.783,-0.793 1.472,-1.335 2.53,-1.335 1.689,0 3.06,1.37 3.06,3.061 0,0.284 -0.14,1.105 -0.212,1.367 l -0.003,-0.003 c -0.165,0.617 -0.959,2.603 -1.304,3.352 0,0 -13.574,23.268 22.614,25.288 z"
                            style="fill:none;stroke:#bdbcbc;stroke-width:0.45100001;stroke-linecap:butt;stroke-linejoin:miter;stroke-miterlimit:10;stroke-dasharray:none;stroke-opacity:1"
                            id="path4442"
                            inkscape:connector-curvature="0"/>
                </g>
                <g
                        id="g4444"
                        transform="translate(141.9312,68.2842)">
                    <path
                            d="m 0,0 c -44.246,-1.458 -67.309,11.363 -70.169,36.544 -0.916,11.565 5.319,21.371 18.502,32.849 0,0 1.426,0.994 1.427,2.915 0,0.57 0.007,1.371 -0.859,2.945 l -2.385,4.152 c -0.665,1.116 -1.693,1.518 -2.986,1.518 -1.037,0 -1.98,-0.395 -2.689,-1.042 0,0 1.521,1.076 -0.009,0.012 -16.286,-11.322 -24.97,-27.737 -24.97,-41.45 0,-16.88 9.875,-32.499 27.811,-43.986 16.882,-10.813 39.176,-16.767 62.769,-16.767 17.351,0 33.575,3.214 47.885,9.216 l 0.077,0.032 c 0,0 3.32,1.245 1.396,5.449 -1.919,4.203 -1.471,3.936 -7.233,12.809 -7.384,11.384 -21.101,25.741 -21.883,26.533 -0.784,0.794 -1.473,1.336 -2.531,1.336 -1.69,0 -3.06,-1.37 -3.06,-3.059 0,-0.285 0.14,-1.109 0.211,-1.368 l 0.005,0.003 c 0.164,-0.618 0.959,-2.604 1.304,-3.352 C 22.613,25.289 36.185,2.019 0,0 Z"
                            style="fill:none;stroke:#bdbcbc;stroke-width:0.45100001;stroke-linecap:butt;stroke-linejoin:miter;stroke-miterlimit:10;stroke-dasharray:none;stroke-opacity:1"
                            id="path4446"
                            inkscape:connector-curvature="0"/>
                </g>
            </g>
        </g>
    </g>
</svg>
